<svg xmlns="http://www.w3.org/2000/svg" xmlns:xlink="http://www.w3.org/1999/xlink" width="400" zoomAndPan="magnify" viewBox="0 0 300 299.999988" height="400" preserveAspectRatio="xMidYMid meet" version="1.0"><path fill="#caddff" d="M 21.332031 60.304688 C 42.839844 23.761719 83.777344 14.828125 99.214844 11.460938 C 151.753906 -0.0078125 229.5 13.769531 267.015625 76.054688 C 299.9375 130.71875 281.605469 189.105469 278.949219 197.109375 C 274.492188 210.535156 263.339844 242.730469 231.710938 264.542969 C 182.476562 298.496094 107.429688 290.878906 81.75 255.828125 C 69.6875 239.367188 79.449219 231.777344 65.402344 202.671875 C 46.585938 163.6875 23.238281 164.625 12.355469 133.414062 C 0.0742188 98.183594 19.34375 63.683594 21.332031 60.304688 " fill-opacity="1" fill-rule="nonzero"/><path fill="#ffffff" d="M 215.796875 77.4375 L 225.375 77.4375 C 228.132812 77.4375 229.832031 74.339844 228.398438 71.921875 L 204.675781 31.90625 C 203.316406 29.609375 199.992188 29.609375 198.628906 31.90625 L 174.90625 71.921875 C 173.476562 74.339844 175.171875 77.4375 177.933594 77.4375 L 185.953125 77.4375 C 188.125 77.4375 189.789062 79.429688 189.445312 81.632812 C 185.347656 107.871094 148.496094 206.527344 56.265625 200.488281 C 60.640625 210.441406 58.917969 243.144531 69.128906 252.929688 C 78.648438 262.054688 114.902344 230.128906 127.652344 233.519531 C 132.90625 234.917969 138.113281 236.324219 139.105469 236.664062 C 203.664062 194.875 211.789062 105.640625 212.261719 80.988281 C 212.296875 79.011719 213.871094 77.4375 215.796875 77.4375 " fill-opacity="1" fill-rule="nonzero"/><path fill="#142d49" d="M 166.039062 138.890625 C 165.945312 138.890625 165.851562 138.867188 165.765625 138.8125 C 165.53125 138.660156 165.464844 138.347656 165.617188 138.117188 C 167.917969 134.558594 172.015625 127.773438 173.445312 125.148438 C 173.578125 124.90625 173.882812 124.816406 174.128906 124.949219 C 174.371094 125.082031 174.464844 125.390625 174.328125 125.632812 C 172.890625 128.269531 168.777344 135.089844 166.464844 138.664062 C 166.367188 138.8125 166.207031 138.890625 166.039062 138.890625 " fill-opacity="1" fill-rule="nonzero"/><path fill="#142d49" d="M 176.292969 120.546875 C 176.21875 120.546875 176.144531 120.53125 176.070312 120.496094 C 175.820312 120.378906 175.714844 120.074219 175.835938 119.824219 C 183.632812 103.578125 187.722656 89.402344 188.949219 81.550781 C 189.09375 80.632812 188.832031 79.699219 188.230469 79 C 187.652344 78.324219 186.820312 77.941406 185.953125 77.941406 L 177.933594 77.941406 C 176.476562 77.941406 175.171875 77.175781 174.441406 75.890625 C 173.683594 74.5625 173.695312 72.980469 174.472656 71.667969 L 198.195312 31.648438 C 198.925781 30.414062 200.21875 29.679688 201.652344 29.679688 C 203.085938 29.679688 204.382812 30.414062 205.113281 31.648438 L 228.832031 71.667969 C 229.613281 72.980469 229.625 74.5625 228.867188 75.890625 C 228.132812 77.175781 226.828125 77.941406 225.375 77.941406 L 215.796875 77.941406 C 214.15625 77.941406 212.796875 79.308594 212.765625 80.996094 C 212.660156 86.566406 210.964844 104.878906 209.585938 115.375 C 209.550781 115.648438 209.300781 115.84375 209.023438 115.808594 C 208.746094 115.769531 208.550781 115.519531 208.589844 115.242188 C 209.960938 104.773438 211.648438 86.523438 211.757812 80.976562 C 211.796875 78.746094 213.613281 76.929688 215.796875 76.929688 L 225.375 76.929688 C 226.460938 76.929688 227.4375 76.355469 227.988281 75.390625 C 228.566406 74.378906 228.558594 73.179688 227.964844 72.183594 L 204.242188 32.164062 C 203.695312 31.238281 202.726562 30.6875 201.652344 30.6875 C 200.578125 30.6875 199.613281 31.238281 199.0625 32.164062 L 175.34375 72.183594 C 174.75 73.179688 174.742188 74.378906 175.316406 75.390625 C 175.867188 76.355469 176.84375 76.929688 177.933594 76.929688 L 185.953125 76.929688 C 187.117188 76.929688 188.230469 77.445312 188.996094 78.34375 C 189.789062 79.269531 190.132812 80.496094 189.945312 81.707031 C 188.707031 89.628906 184.589844 103.914062 176.746094 120.261719 C 176.660156 120.441406 176.476562 120.546875 176.292969 120.546875 " fill-opacity="1" fill-rule="nonzero"/><path fill="#142d49" d="M 129.082031 237.9375 L 107.34375 259.664062 C 107.328125 259.679688 107.304688 259.6875 107.28125 259.6875 L 53.453125 259.484375 C 53.371094 259.484375 53.328125 259.386719 53.386719 259.328125 L 74.964844 237.765625 C 74.980469 237.75 75.003906 237.738281 75.027344 237.738281 L 129.019531 237.78125 C 129.097656 237.78125 129.140625 237.882812 129.082031 237.9375 " fill-opacity="1" fill-rule="nonzero"/><path fill="#000000" d="M 54.445312 258.984375 L 107.109375 259.183594 L 128.023438 238.285156 L 75.199219 238.242188 Z M 107.28125 260.195312 L 53.449219 259.988281 C 53.207031 259.988281 52.992188 259.839844 52.898438 259.621094 C 52.808594 259.398438 52.859375 259.140625 53.03125 258.972656 L 74.605469 237.410156 C 74.71875 237.296875 74.871094 237.234375 75.027344 237.234375 L 129.019531 237.277344 C 129.261719 237.28125 129.476562 237.425781 129.570312 237.648438 C 129.660156 237.871094 129.609375 238.125 129.4375 238.296875 L 107.703125 260.019531 C 107.589844 260.132812 107.441406 260.195312 107.28125 260.195312 " fill-opacity="1" fill-rule="nonzero"/><path fill="#000000" d="M 129.132812 237.800781 L 129.132812 263.667969 L 107.542969 285.257812 C 107.460938 285.339844 107.320312 285.28125 107.320312 285.164062 L 107.320312 259.6875 C 107.320312 259.6875 128.820312 237.820312 129.132812 237.800781 " fill-opacity="1" fill-rule="nonzero"/><path fill="#000000" d="M 107.824219 259.894531 L 107.824219 284.261719 L 128.628906 263.457031 L 128.628906 238.941406 C 125.667969 241.804688 115.136719 252.457031 107.824219 259.894531 Z M 107.449219 285.800781 C 107.367188 285.800781 107.285156 285.785156 107.207031 285.75 C 106.96875 285.652344 106.8125 285.421875 106.8125 285.164062 L 106.8125 259.6875 C 106.8125 259.558594 106.867188 259.429688 106.960938 259.335938 C 107.011719 259.28125 112.398438 253.804688 117.75 248.398438 C 128.71875 237.320312 128.824219 237.3125 129.105469 237.300781 C 129.242188 237.292969 129.378906 237.34375 129.480469 237.4375 C 129.582031 237.53125 129.636719 237.664062 129.636719 237.800781 L 129.636719 263.667969 C 129.636719 263.800781 129.582031 263.929688 129.488281 264.023438 L 107.898438 285.613281 C 107.777344 285.734375 107.613281 285.800781 107.449219 285.800781 " fill-opacity="1" fill-rule="nonzero"/><path fill="#ffffff" d="M 107.320312 285.292969 L 53.324219 285.09375 L 53.367188 259.53125 L 107.320312 259.6875 C 107.320312 259.6875 107.320312 285.371094 107.320312 285.292969 " fill-opacity="1" fill-rule="nonzero"/><path fill="#000000" d="M 53.828125 284.589844 L 106.8125 284.789062 L 106.8125 260.191406 L 53.871094 260.035156 Z M 107.320312 285.800781 C 107.316406 285.800781 107.316406 285.800781 107.316406 285.800781 L 53.320312 285.597656 C 53.042969 285.59375 52.816406 285.371094 52.820312 285.089844 L 52.863281 259.53125 C 52.863281 259.398438 52.917969 259.265625 53.011719 259.171875 C 53.109375 259.078125 53.234375 259.027344 53.367188 259.027344 C 53.371094 259.027344 53.371094 259.027344 53.371094 259.027344 L 107.320312 259.183594 C 107.597656 259.1875 107.824219 259.414062 107.824219 259.6875 L 107.824219 285.292969 C 107.824219 285.429688 107.769531 285.558594 107.675781 285.652344 C 107.582031 285.746094 107.453125 285.800781 107.320312 285.800781 " fill-opacity="1" fill-rule="nonzero"/><path fill="#142d49" d="M 202.835938 181.894531 L 181.121094 203.597656 L 120.96875 203.390625 C 120.90625 203.390625 120.875 203.316406 120.917969 203.269531 L 142.554688 181.644531 L 202.75 181.691406 C 202.855469 181.691406 202.910156 181.816406 202.835938 181.894531 " fill-opacity="1" fill-rule="nonzero"/><path fill="#000000" d="M 122.011719 202.890625 L 180.910156 203.089844 L 201.820312 182.191406 L 142.765625 182.148438 Z M 181.121094 204.101562 C 181.117188 204.101562 181.117188 204.101562 181.117188 204.101562 L 120.964844 203.894531 C 120.730469 203.894531 120.523438 203.753906 120.4375 203.539062 C 120.347656 203.324219 120.398438 203.078125 120.5625 202.914062 L 142.199219 181.289062 C 142.292969 181.195312 142.421875 181.140625 142.554688 181.140625 L 202.75 181.1875 C 203.003906 181.1875 203.230469 181.335938 203.328125 181.570312 C 203.425781 181.804688 203.371094 182.070312 203.191406 182.25 L 181.476562 203.953125 C 181.382812 204.046875 181.25 204.101562 181.121094 204.101562 " fill-opacity="1" fill-rule="nonzero"/><path fill="#000000" d="M 202.933594 181.707031 L 202.933594 263.507812 L 181.285156 285.15625 C 181.222656 285.214844 181.121094 285.171875 181.121094 285.085938 L 181.121094 203.597656 C 181.121094 203.597656 202.621094 181.726562 202.933594 181.707031 " fill-opacity="1" fill-rule="nonzero"/><path fill="#000000" d="M 181.625 203.804688 L 181.625 284.101562 L 202.429688 263.296875 L 202.429688 182.847656 C 199.46875 185.707031 188.9375 196.367188 181.625 203.804688 Z M 181.214844 285.6875 C 181.140625 285.6875 181.058594 285.671875 180.984375 285.640625 C 180.757812 285.550781 180.613281 285.328125 180.613281 285.085938 L 180.613281 203.597656 C 180.613281 203.464844 180.664062 203.335938 180.757812 203.242188 C 180.8125 203.1875 186.195312 197.710938 191.550781 192.304688 C 202.515625 181.226562 202.625 181.21875 202.90625 181.207031 C 203.046875 181.199219 203.179688 181.25 203.28125 181.34375 C 203.378906 181.4375 203.4375 181.570312 203.4375 181.710938 L 203.4375 263.507812 C 203.4375 263.640625 203.382812 263.769531 203.289062 263.863281 L 181.640625 285.511719 C 181.527344 285.625 181.371094 285.6875 181.214844 285.6875 " fill-opacity="1" fill-rule="nonzero"/><path fill="#ffffff" d="M 181.121094 285.296875 L 120.890625 285.09375 C 121.019531 285.222656 120.9375 203.4375 120.9375 203.4375 L 181.121094 203.597656 C 181.121094 203.597656 181.121094 285.371094 181.121094 285.296875 " fill-opacity="1" fill-rule="nonzero"/><path fill="#000000" d="M 121.410156 284.589844 L 180.613281 284.789062 L 180.613281 204.097656 L 121.441406 203.945312 C 121.445312 207.207031 121.460938 225.722656 121.464844 244.246094 C 121.46875 254.449219 121.46875 264.65625 121.457031 272.3125 C 121.453125 276.140625 121.445312 279.335938 121.433594 281.570312 C 121.429688 282.691406 121.421875 283.570312 121.417969 284.171875 C 121.414062 284.328125 121.414062 284.46875 121.410156 284.589844 Z M 181.121094 285.800781 C 181.117188 285.800781 181.117188 285.800781 181.117188 285.800781 L 120.890625 285.597656 C 120.644531 285.597656 120.4375 285.421875 120.394531 285.179688 C 120.382812 285.121094 120.382812 285.066406 120.390625 285.011719 C 120.488281 283.382812 120.460938 231.023438 120.433594 203.4375 C 120.433594 203.304688 120.484375 203.175781 120.578125 203.082031 C 120.675781 202.988281 120.800781 202.933594 120.9375 202.933594 L 181.121094 203.09375 C 181.398438 203.09375 181.625 203.320312 181.625 203.597656 L 181.625 285.296875 C 181.625 285.429688 181.570312 285.558594 181.472656 285.652344 C 181.378906 285.746094 181.25 285.800781 181.121094 285.800781 " fill-opacity="1" fill-rule="nonzero"/><path fill="#caddff" d="M 162.410156 220.621094 C 162.28125 220.621094 162.152344 220.574219 162.054688 220.476562 C 161.855469 220.277344 161.855469 219.957031 162.054688 219.761719 L 167.535156 214.28125 C 167.734375 214.085938 168.050781 214.085938 168.25 214.28125 C 168.445312 214.480469 168.445312 214.800781 168.25 214.996094 L 162.765625 220.476562 C 162.667969 220.574219 162.539062 220.621094 162.410156 220.621094 " fill-opacity="1" fill-rule="nonzero"/><path fill="#142d49" d="M 279.082031 111.878906 L 257.160156 133.785156 L 197.808594 133.582031 C 197.71875 133.582031 197.675781 133.472656 197.738281 133.410156 L 219.328125 111.835938 L 279.082031 111.878906 " fill-opacity="1" fill-rule="nonzero"/><path fill="#000000" d="M 198.785156 133.082031 L 256.953125 133.28125 L 277.867188 112.382812 L 219.539062 112.339844 Z M 198.097656 133.769531 L 198.09375 133.769531 C 198.097656 133.769531 198.097656 133.769531 198.097656 133.769531 Z M 257.164062 134.289062 L 257.160156 134.289062 L 197.804688 134.085938 C 197.5625 134.082031 197.34375 133.9375 197.25 133.710938 C 197.15625 133.484375 197.210938 133.226562 197.382812 133.054688 L 218.972656 111.476562 C 219.070312 111.382812 219.195312 111.332031 219.328125 111.332031 L 279.082031 111.375 C 279.289062 111.375 279.472656 111.496094 279.546875 111.683594 C 279.628906 111.875 279.582031 112.089844 279.441406 112.234375 L 257.519531 134.140625 C 257.425781 134.238281 257.296875 134.289062 257.164062 134.289062 " fill-opacity="1" fill-rule="nonzero"/><path fill="#000000" d="M 279.082031 111.898438 L 279.082031 263.753906 L 257.492188 285.34375 C 257.410156 285.425781 257.269531 285.367188 257.269531 285.25 L 257.269531 133.785156 C 257.269531 133.785156 278.769531 111.914062 279.082031 111.898438 " fill-opacity="1" fill-rule="nonzero"/><path fill="#000000" d="M 257.773438 133.992188 L 257.773438 284.347656 L 278.578125 263.546875 L 278.578125 113.035156 C 275.617188 115.898438 265.085938 126.554688 257.773438 133.992188 Z M 257.402344 285.882812 C 257.320312 285.882812 257.234375 285.867188 257.15625 285.835938 C 256.917969 285.738281 256.765625 285.507812 256.765625 285.25 L 256.765625 133.785156 C 256.765625 133.652344 256.816406 133.527344 256.910156 133.433594 C 256.960938 133.378906 262.347656 127.902344 267.699219 122.492188 C 278.667969 111.414062 278.773438 111.410156 279.058594 111.394531 C 279.191406 111.390625 279.332031 111.4375 279.429688 111.535156 C 279.53125 111.628906 279.589844 111.761719 279.589844 111.898438 L 279.589844 263.753906 C 279.589844 263.886719 279.535156 264.015625 279.441406 264.109375 L 257.851562 285.699219 C 257.730469 285.820312 257.566406 285.882812 257.402344 285.882812 " fill-opacity="1" fill-rule="nonzero"/><path fill="#ffffff" d="M 257.269531 285.382812 L 197.664062 285.179688 C 197.792969 285.308594 197.710938 133.628906 197.710938 133.628906 L 257.269531 133.789062 C 257.269531 133.789062 257.269531 285.457031 257.269531 285.382812 " fill-opacity="1" fill-rule="nonzero"/><path fill="#000000" d="M 198.175781 284.675781 L 256.765625 284.875 L 256.765625 134.289062 L 198.214844 134.132812 C 198.214844 138.738281 198.234375 174.058594 198.238281 209.382812 C 198.242188 228.324219 198.238281 247.265625 198.230469 261.476562 C 198.226562 268.582031 198.21875 274.503906 198.207031 278.652344 C 198.203125 280.726562 198.195312 282.359375 198.191406 283.46875 C 198.1875 283.996094 198.183594 284.386719 198.175781 284.675781 Z M 257.269531 285.886719 L 197.664062 285.683594 C 197.417969 285.683594 197.207031 285.507812 197.167969 285.269531 C 197.15625 285.214844 197.15625 285.160156 197.164062 285.113281 C 197.285156 282.597656 197.207031 135.121094 197.207031 133.625 C 197.207031 133.492188 197.257812 133.363281 197.351562 133.269531 C 197.445312 133.175781 197.574219 133.121094 197.707031 133.121094 L 257.269531 133.28125 C 257.546875 133.28125 257.773438 133.507812 257.773438 133.785156 L 257.773438 285.382812 C 257.773438 285.515625 257.71875 285.644531 257.625 285.738281 C 257.53125 285.832031 257.402344 285.886719 257.269531 285.886719 " fill-opacity="1" fill-rule="nonzero"/><path fill="#caddff" d="M 223.023438 168.078125 C 222.894531 168.078125 222.765625 168.027344 222.667969 167.929688 C 222.46875 167.734375 222.46875 167.414062 222.667969 167.21875 L 239.925781 149.96875 C 240.125 149.773438 240.445312 149.773438 240.640625 149.96875 C 240.835938 150.164062 240.835938 150.484375 240.640625 150.683594 L 223.378906 167.929688 C 223.28125 168.027344 223.152344 168.078125 223.023438 168.078125 " fill-opacity="1" fill-rule="nonzero"/><path fill="#caddff" d="M 222.417969 155.089844 C 222.285156 155.089844 222.15625 155.042969 222.058594 154.941406 C 221.863281 154.746094 221.863281 154.425781 222.058594 154.230469 L 227.539062 148.75 C 227.738281 148.554688 228.058594 148.554688 228.253906 148.75 C 228.453125 148.949219 228.453125 149.269531 228.253906 149.464844 L 222.773438 154.941406 C 222.671875 155.042969 222.542969 155.089844 222.417969 155.089844 " fill-opacity="1" fill-rule="nonzero"/><path fill="#000000" d="M 208.714844 13.519531 C 208.582031 13.519531 208.445312 13.464844 208.347656 13.359375 L 206.777344 11.6875 C 206.582031 11.484375 206.59375 11.164062 206.796875 10.972656 C 207 10.785156 207.320312 10.792969 207.511719 10.996094 L 209.082031 12.667969 C 209.273438 12.871094 209.265625 13.191406 209.0625 13.382812 C 208.964844 13.472656 208.839844 13.519531 208.714844 13.519531 " fill-opacity="1" fill-rule="nonzero"/><path fill="#000000" d="M 214.21875 19.375 C 214.085938 19.375 213.949219 19.320312 213.851562 19.214844 L 212.277344 17.539062 C 212.089844 17.339844 212.097656 17.019531 212.300781 16.828125 C 212.503906 16.636719 212.824219 16.648438 213.015625 16.851562 L 214.585938 18.523438 C 214.777344 18.726562 214.769531 19.046875 214.566406 19.234375 C 214.46875 19.328125 214.34375 19.375 214.21875 19.375 " fill-opacity="1" fill-rule="nonzero"/><path fill="#000000" d="M 206.917969 19.039062 C 206.785156 19.039062 206.644531 18.980469 206.546875 18.875 C 206.359375 18.667969 206.375 18.347656 206.578125 18.160156 L 208.25 16.636719 C 208.457031 16.449219 208.777344 16.464844 208.964844 16.667969 C 209.152344 16.875 209.136719 17.195312 208.929688 17.382812 L 207.257812 18.90625 C 207.164062 18.992188 207.042969 19.039062 206.917969 19.039062 " fill-opacity="1" fill-rule="nonzero"/><path fill="#000000" d="M 212.773438 13.703125 C 212.632812 13.703125 212.5 13.648438 212.398438 13.539062 C 212.210938 13.332031 212.226562 13.015625 212.433594 12.828125 L 214.105469 11.304688 C 214.3125 11.117188 214.628906 11.132812 214.816406 11.335938 C 215.003906 11.542969 214.992188 11.859375 214.78125 12.050781 L 213.109375 13.570312 C 213.015625 13.664062 212.894531 13.703125 212.773438 13.703125 " fill-opacity="1" fill-rule="nonzero"/><path fill="#000000" d="M 31.578125 29.636719 C 31.441406 29.636719 31.308594 29.585938 31.207031 29.480469 L 29.882812 28.070312 C 29.691406 27.867188 29.703125 27.546875 29.90625 27.355469 C 30.109375 27.164062 30.429688 27.175781 30.621094 27.378906 L 31.945312 28.789062 C 32.136719 28.992188 32.125 29.3125 31.921875 29.5 C 31.824219 29.59375 31.699219 29.636719 31.578125 29.636719 " fill-opacity="1" fill-rule="nonzero"/><path fill="#000000" d="M 36.214844 34.574219 C 36.082031 34.574219 35.945312 34.519531 35.847656 34.414062 L 34.523438 33.003906 C 34.332031 32.800781 34.339844 32.480469 34.542969 32.292969 C 34.746094 32.101562 35.066406 32.113281 35.257812 32.3125 L 36.582031 33.722656 C 36.773438 33.929688 36.765625 34.246094 36.5625 34.4375 C 36.464844 34.527344 36.339844 34.574219 36.214844 34.574219 " fill-opacity="1" fill-rule="nonzero"/><path fill="#000000" d="M 30.0625 34.289062 C 29.925781 34.289062 29.789062 34.234375 29.691406 34.125 C 29.5 33.917969 29.515625 33.601562 29.722656 33.414062 L 31.132812 32.128906 C 31.335938 31.941406 31.65625 31.957031 31.84375 32.164062 C 32.03125 32.367188 32.015625 32.6875 31.8125 32.875 L 30.402344 34.160156 C 30.304688 34.246094 30.183594 34.289062 30.0625 34.289062 " fill-opacity="1" fill-rule="nonzero"/><path fill="#000000" d="M 34.996094 29.796875 C 34.859375 29.796875 34.722656 29.742188 34.621094 29.628906 C 34.433594 29.425781 34.449219 29.105469 34.65625 28.917969 L 36.066406 27.632812 C 36.269531 27.445312 36.589844 27.460938 36.777344 27.667969 C 36.964844 27.871094 36.949219 28.191406 36.746094 28.378906 L 35.335938 29.664062 C 35.238281 29.75 35.117188 29.796875 34.996094 29.796875 " fill-opacity="1" fill-rule="nonzero"/><path fill="#000000" d="M 225.4375 93.828125 C 225.371094 93.828125 225.300781 93.828125 225.230469 93.824219 C 223.140625 93.710938 221.527344 91.917969 221.640625 89.828125 C 221.65625 89.550781 221.886719 89.347656 222.167969 89.351562 C 222.449219 89.367188 222.660156 89.605469 222.648438 89.882812 C 222.605469 90.625 222.859375 91.339844 223.355469 91.894531 C 223.855469 92.449219 224.542969 92.777344 225.285156 92.816406 C 226.832031 92.898438 228.140625 91.714844 228.222656 90.179688 C 228.304688 88.644531 227.121094 87.328125 225.582031 87.246094 C 225.304688 87.230469 225.089844 86.992188 225.105469 86.714844 C 225.121094 86.4375 225.351562 86.230469 225.636719 86.238281 C 226.652344 86.292969 227.582031 86.738281 228.261719 87.492188 C 228.941406 88.246094 229.285156 89.21875 229.230469 90.234375 C 229.175781 91.246094 228.730469 92.179688 227.972656 92.855469 C 227.269531 93.488281 226.378906 93.828125 225.4375 93.828125 " fill-opacity="1" fill-rule="nonzero"/><path fill="#000000" d="M 107.863281 99.832031 C 107.84375 94.894531 104.347656 91.449219 104.160156 91.269531 C 101.890625 89.066406 98.796875 87.734375 95.480469 87.945312 C 96.074219 83.410156 95.007812 78.679688 92.527344 74.835938 C 85.910156 64.597656 67.378906 62.066406 57.917969 69.78125 C 56.226562 71.164062 54.9375 73.214844 55.019531 75.394531 C 51.585938 72.398438 46.894531 71 42.339844 71.257812 C 40.675781 71.351562 34.589844 71.515625 29.769531 76.109375 C 28.351562 77.460938 25.253906 80.417969 25.097656 85.003906 C 24.992188 88.09375 26.269531 90.460938 26.964844 91.554688 C 23.714844 90.707031 20.050781 91.453125 17.492188 93.628906 C 14.929688 95.804688 13.601562 99.386719 14.277344 102.679688 C 15.972656 110.917969 24.449219 110.210938 30.777344 110.210938 C 44.347656 110.210938 57.921875 110.210938 71.492188 110.210938 C 80.140625 110.210938 88.785156 110.210938 97.429688 110.210938 C 98.316406 110.210938 107.648438 105.488281 107.859375 100.179688 C 107.863281 100.046875 107.863281 99.914062 107.863281 99.832031 " fill-opacity="1" fill-rule="nonzero"/><path fill="#000000" d="M 129.703125 49.976562 C 129.703125 46.820312 133.042969 44.058594 136.890625 44.261719 C 136.546875 42.082031 137.164062 39.808594 138.605469 37.960938 C 142.445312 33.039062 153.199219 31.820312 158.691406 35.53125 C 159.667969 36.191406 160.417969 37.179688 160.371094 38.226562 C 162.363281 36.789062 165.085938 36.117188 167.726562 36.238281 C 168.941406 36.292969 172.230469 36.300781 175.023438 38.574219 C 175.984375 39.355469 177.65625 40.71875 177.734375 42.847656 C 177.789062 44.332031 177.042969 45.476562 176.652344 46 C 178.539062 45.589844 180.664062 45.949219 182.148438 46.996094 C 183.636719 48.039062 184.40625 49.761719 184.011719 51.34375 C 183.027344 55.304688 178.109375 54.964844 174.441406 54.964844 C 166.5625 54.964844 158.6875 54.964844 150.8125 54.964844 C 145.792969 54.964844 140.777344 54.964844 135.757812 54.964844 C 132.503906 54.964844 129.789062 52.835938 129.707031 50.144531 C 129.707031 50.089844 129.703125 50.03125 129.703125 49.976562 " fill-opacity="1" fill-rule="nonzero"/><path fill="#000000" d="M 94.097656 27.078125 C 115.070312 15.515625 112.78125 57.238281 113.417969 67.347656 C 113.859375 74.324219 114.277344 81.480469 112.210938 88.15625 C 108.359375 100.585938 96.492188 107.988281 84.207031 110.285156 C 76.980469 111.636719 68.800781 110.003906 63.929688 104.5 C 59.546875 99.539062 58.554688 92.382812 59.207031 85.800781 C 60.46875 73.089844 66.957031 63.910156 75.566406 55.054688 C 83.320312 47.078125 79.46875 35.144531 94.097656 27.078125 " fill-opacity="1" fill-rule="nonzero"/><path fill="#ffffff" d="M 77.5 219.019531 L 75.800781 234.078125 L 82.210938 236.746094 L 84.570312 220.328125 L 77.5 219.019531 " fill-opacity="1" fill-rule="nonzero"/><path fill="#000000" d="M 76.34375 233.757812 L 81.804688 236.03125 L 84.003906 220.734375 L 77.941406 219.613281 Z M 82.210938 237.25 C 82.144531 237.25 82.078125 237.238281 82.015625 237.210938 L 75.609375 234.542969 C 75.402344 234.457031 75.273438 234.246094 75.300781 234.023438 L 77 218.964844 C 77.015625 218.824219 77.089844 218.699219 77.199219 218.613281 C 77.3125 218.53125 77.453125 218.496094 77.59375 218.523438 L 84.664062 219.832031 C 84.929688 219.882812 85.109375 220.132812 85.070312 220.398438 L 82.710938 236.816406 C 82.6875 236.972656 82.59375 237.105469 82.460938 237.183594 C 82.382812 237.230469 82.296875 237.25 82.210938 237.25 " fill-opacity="1" fill-rule="nonzero"/><path fill="#142d49" d="M 74.308594 232.65625 C 74.109375 234.085938 73.78125 236.730469 73.753906 239.109375 C 73.738281 240.597656 74.859375 241.855469 76.339844 242.046875 C 80.523438 242.582031 90.015625 243.167969 98.097656 242.4375 C 98.652344 242.386719 99.628906 241.984375 99.902344 240.601562 C 100.820312 235.964844 92.746094 234.828125 83.894531 231.464844 C 83.546875 231.332031 83.15625 231.410156 82.890625 231.667969 L 81.9375 232.59375 C 80.980469 233.515625 79.5625 233.777344 78.339844 233.257812 L 75.4375 232.019531 C 74.945312 231.808594 74.386719 232.125 74.308594 232.65625 " fill-opacity="1" fill-rule="nonzero"/><path fill="#000000" d="M 74.808594 232.726562 C 74.617188 234.097656 74.285156 236.753906 74.257812 239.113281 C 74.246094 240.34375 75.167969 241.386719 76.402344 241.546875 C 80.71875 242.101562 90.046875 242.660156 98.054688 241.933594 C 98.234375 241.917969 99.160156 241.769531 99.410156 240.503906 C 100.023438 237.390625 95.703125 235.976562 89.722656 234.015625 C 87.792969 233.382812 85.800781 232.726562 83.714844 231.9375 C 83.550781 231.871094 83.363281 231.910156 83.242188 232.03125 L 82.285156 232.957031 C 81.183594 234.023438 79.554688 234.324219 78.144531 233.722656 L 75.242188 232.484375 C 75.117188 232.429688 75.015625 232.472656 74.964844 232.5 C 74.914062 232.527344 74.828125 232.59375 74.808594 232.726562 Z M 89.675781 243.285156 C 84.230469 243.285156 79.152344 242.914062 76.273438 242.546875 C 74.53125 242.324219 73.230469 240.839844 73.25 239.101562 C 73.277344 236.683594 73.613281 233.980469 73.8125 232.585938 C 73.867188 232.175781 74.109375 231.824219 74.46875 231.621094 C 74.832031 231.417969 75.253906 231.394531 75.636719 231.558594 L 78.539062 232.792969 C 79.578125 233.238281 80.773438 233.015625 81.585938 232.230469 L 82.539062 231.308594 C 82.941406 230.914062 83.546875 230.792969 84.074219 230.996094 C 86.136719 231.777344 88.121094 232.429688 90.039062 233.058594 C 96.265625 235.097656 101.183594 236.710938 100.398438 240.699219 C 100.097656 242.226562 98.996094 242.863281 98.144531 242.9375 C 95.390625 243.1875 92.484375 243.285156 89.675781 243.285156 " fill-opacity="1" fill-rule="nonzero"/><path fill="#ffffff" d="M 73.761719 238.75 C 73.761719 238.75 73.757812 238.992188 73.753906 239.109375 C 73.738281 240.597656 74.859375 241.855469 76.339844 242.046875 C 80.523438 242.582031 90.015625 243.167969 98.097656 242.4375 C 98.652344 242.386719 99.628906 241.984375 99.902344 240.601562 C 99.988281 240.179688 99.9375 239.414062 99.9375 239.414062 L 99.363281 239.445312 C 91.191406 239.847656 83.003906 239.652344 74.863281 238.859375 L 73.761719 238.75 " fill-opacity="1" fill-rule="nonzero"/><path fill="#000000" d="M 74.265625 239.304688 C 74.34375 240.449219 75.230469 241.394531 76.402344 241.546875 C 80.71875 242.101562 90.046875 242.660156 98.054688 241.933594 C 98.234375 241.917969 99.160156 241.769531 99.410156 240.503906 C 99.4375 240.359375 99.445312 240.148438 99.445312 239.945312 L 99.386719 239.949219 C 91.21875 240.351562 82.953125 240.152344 74.816406 239.359375 Z M 89.675781 243.285156 C 84.230469 243.285156 79.152344 242.914062 76.273438 242.546875 C 74.53125 242.324219 73.230469 240.839844 73.25 239.101562 L 73.257812 238.742188 C 73.261719 238.601562 73.320312 238.464844 73.425781 238.375 C 73.53125 238.28125 73.667969 238.234375 73.8125 238.25 L 74.914062 238.355469 C 83.003906 239.144531 91.21875 239.339844 99.335938 238.941406 L 99.910156 238.914062 C 100.191406 238.910156 100.421875 239.109375 100.4375 239.382812 C 100.445312 239.46875 100.492188 240.222656 100.398438 240.699219 C 100.097656 242.226562 98.996094 242.863281 98.144531 242.9375 C 95.390625 243.1875 92.484375 243.285156 89.675781 243.285156 " fill-opacity="1" fill-rule="nonzero"/><path fill="#000000" d="M 85.925781 236.976562 C 85.796875 236.976562 85.667969 236.925781 85.566406 236.828125 C 85.371094 236.632812 85.371094 236.3125 85.566406 236.113281 L 88.675781 233.011719 C 88.871094 232.816406 89.191406 232.816406 89.386719 233.011719 C 89.585938 233.207031 89.585938 233.527344 89.386719 233.726562 L 86.28125 236.828125 C 86.183594 236.925781 86.054688 236.976562 85.925781 236.976562 " fill-opacity="1" fill-rule="nonzero"/><path fill="#000000" d="M 88.976562 237.300781 C 88.847656 237.300781 88.722656 237.253906 88.625 237.15625 C 88.425781 236.964844 88.417969 236.644531 88.613281 236.445312 L 91.09375 233.867188 C 91.285156 233.667969 91.605469 233.664062 91.804688 233.855469 C 92.007812 234.046875 92.015625 234.367188 91.820312 234.566406 L 89.339844 237.144531 C 89.238281 237.246094 89.109375 237.300781 88.976562 237.300781 " fill-opacity="1" fill-rule="nonzero"/><path fill="#000000" d="M 99.714844 119.996094 C 99.714844 119.996094 95.8125 122.257812 94.289062 135.527344 C 92.765625 148.792969 91.109375 168.5 83.734375 179.726562 C 75.496094 192.265625 76.011719 213.019531 74.78125 226.726562 C 74.71875 227.386719 75.230469 227.957031 75.894531 227.980469 L 84.011719 228.261719 C 84.53125 228.277344 84.996094 227.953125 85.152344 227.460938 C 86.605469 222.96875 93.820312 201.304688 101.925781 188.746094 C 110.492188 175.46875 120.910156 141.011719 120.910156 141.011719 C 120.910156 141.011719 118.976562 132.300781 118.707031 123.953125 C 118.4375 115.605469 99.714844 119.996094 99.714844 119.996094 " fill-opacity="1" fill-rule="nonzero"/><path fill="#ffffff" d="M 146.847656 173.484375 L 143.425781 188.246094 L 149.484375 191.636719 L 153.71875 175.597656 L 146.847656 173.484375 " fill-opacity="1" fill-rule="nonzero"/><path fill="#000000" d="M 144 187.992188 L 149.160156 190.878906 L 153.109375 175.9375 L 147.214844 174.125 Z M 149.484375 192.140625 C 149.398438 192.140625 149.3125 192.117188 149.234375 192.074219 L 143.175781 188.6875 C 142.980469 188.578125 142.882812 188.351562 142.933594 188.136719 L 146.355469 173.371094 C 146.386719 173.234375 146.476562 173.117188 146.59375 173.046875 C 146.71875 172.976562 146.863281 172.960938 146.996094 173.003906 L 153.871094 175.117188 C 154.125 175.195312 154.277344 175.464844 154.207031 175.726562 L 149.972656 191.765625 C 149.929688 191.914062 149.824219 192.039062 149.679688 192.101562 C 149.617188 192.125 149.550781 192.140625 149.484375 192.140625 " fill-opacity="1" fill-rule="nonzero"/><path fill="#142d49" d="M 142.695312 187.375 C 142.496094 188.804688 141.210938 191.511719 141.183594 193.882812 C 141.167969 195.375 142.285156 196.632812 143.765625 196.824219 C 147.949219 197.359375 158.402344 197.886719 166.484375 197.15625 C 167.039062 197.105469 168.015625 196.703125 168.289062 195.320312 C 169.203125 190.683594 161.132812 189.546875 152.28125 186.183594 C 151.933594 186.050781 151.542969 186.128906 151.277344 186.386719 L 150.320312 187.3125 C 149.367188 188.234375 147.949219 188.496094 146.726562 187.976562 L 143.824219 186.738281 C 143.328125 186.53125 142.773438 186.84375 142.695312 187.375 " fill-opacity="1" fill-rule="nonzero"/><path fill="#000000" d="M 143.195312 187.445312 C 143.113281 188.015625 142.890625 188.730469 142.625 189.558594 C 142.214844 190.855469 141.703125 192.46875 141.6875 193.890625 C 141.675781 195.117188 142.59375 196.164062 143.832031 196.324219 C 147.621094 196.808594 158.148438 197.40625 166.4375 196.652344 C 166.621094 196.636719 167.546875 196.492188 167.792969 195.222656 C 168.410156 192.109375 164.089844 190.695312 158.109375 188.734375 C 156.179688 188.101562 154.1875 187.445312 152.101562 186.65625 C 151.9375 186.589844 151.75 186.628906 151.625 186.75 L 150.671875 187.671875 C 149.570312 188.742188 147.941406 189.042969 146.53125 188.441406 L 143.628906 187.203125 C 143.503906 187.152344 143.402344 187.191406 143.351562 187.21875 C 143.300781 187.246094 143.214844 187.3125 143.195312 187.445312 Z M 157.421875 198.015625 C 151.949219 198.015625 146.632812 197.699219 143.703125 197.324219 C 141.960938 197.097656 140.660156 195.617188 140.679688 193.878906 C 140.695312 192.308594 141.234375 190.613281 141.664062 189.253906 C 141.914062 188.46875 142.128906 187.792969 142.195312 187.304688 C 142.253906 186.894531 142.496094 186.542969 142.855469 186.339844 C 143.21875 186.136719 143.640625 186.113281 144.023438 186.273438 L 146.925781 187.511719 C 147.964844 187.957031 149.160156 187.734375 149.972656 186.949219 L 150.925781 186.027344 C 151.328125 185.636719 151.933594 185.511719 152.460938 185.710938 C 154.523438 186.496094 156.507812 187.144531 158.425781 187.777344 C 164.652344 189.816406 169.570312 191.429688 168.785156 195.417969 C 168.484375 196.949219 167.382812 197.582031 166.53125 197.660156 C 163.722656 197.914062 160.546875 198.015625 157.421875 198.015625 " fill-opacity="1" fill-rule="nonzero"/><path fill="#ffffff" d="M 141.410156 193.429688 C 141.410156 193.429688 141.40625 193.667969 141.402344 193.785156 C 141.386719 195.277344 142.507812 196.535156 143.988281 196.722656 C 148.171875 197.261719 158.402344 197.886719 166.484375 197.15625 C 167.039062 197.105469 168.015625 196.703125 168.289062 195.320312 C 168.375 194.898438 168.320312 194.136719 168.320312 194.136719 L 167.746094 194.164062 C 159.578125 194.566406 151.390625 194.371094 143.25 193.578125 L 141.410156 193.429688 " fill-opacity="1" fill-rule="nonzero"/><path fill="#000000" d="M 141.914062 193.976562 C 141.988281 195.121094 142.878906 196.074219 144.050781 196.222656 C 147.71875 196.695312 158.011719 197.417969 166.4375 196.652344 C 166.621094 196.636719 167.546875 196.492188 167.792969 195.222656 C 167.824219 195.078125 167.832031 194.863281 167.832031 194.664062 L 167.773438 194.667969 C 159.605469 195.070312 151.339844 194.871094 143.203125 194.078125 Z M 158.199219 197.996094 C 152.140625 197.996094 146.460938 197.550781 143.925781 197.222656 C 142.179688 197 140.878906 195.519531 140.898438 193.78125 L 140.90625 193.417969 C 140.910156 193.277344 140.96875 193.148438 141.074219 193.054688 C 141.175781 192.960938 141.3125 192.914062 141.453125 192.925781 L 143.289062 193.074219 C 151.390625 193.863281 159.605469 194.058594 167.722656 193.660156 L 168.296875 193.632812 C 168.574219 193.613281 168.804688 193.824219 168.824219 194.101562 C 168.832031 194.1875 168.878906 194.945312 168.785156 195.417969 C 168.484375 196.949219 167.382812 197.582031 166.53125 197.660156 C 163.851562 197.902344 160.984375 197.996094 158.199219 197.996094 " fill-opacity="1" fill-rule="nonzero"/><path fill="#000000" d="M 154.3125 191.695312 C 154.183594 191.695312 154.050781 191.644531 153.953125 191.546875 C 153.757812 191.351562 153.757812 191.03125 153.953125 190.835938 L 157.0625 187.730469 C 157.257812 187.535156 157.574219 187.535156 157.773438 187.730469 C 157.96875 187.925781 157.96875 188.246094 157.773438 188.441406 L 154.667969 191.546875 C 154.570312 191.644531 154.441406 191.695312 154.3125 191.695312 " fill-opacity="1" fill-rule="nonzero"/><path fill="#000000" d="M 157.363281 192.019531 C 157.234375 192.019531 157.109375 191.96875 157.011719 191.878906 C 156.8125 191.683594 156.804688 191.367188 157 191.164062 L 159.480469 188.585938 C 159.675781 188.386719 159.992188 188.382812 160.195312 188.574219 C 160.394531 188.765625 160.398438 189.085938 160.207031 189.285156 L 157.726562 191.863281 C 157.625 191.964844 157.492188 192.019531 157.363281 192.019531 " fill-opacity="1" fill-rule="nonzero"/><path fill="#000000" d="M 114.40625 141.972656 C 114.40625 141.972656 133.542969 147.664062 153.902344 136.738281 C 154.503906 136.417969 155.140625 137.105469 154.777344 137.683594 C 153.753906 139.300781 150.824219 143.28125 149.296875 147.425781 C 147.414062 152.53125 144.726562 172.355469 143.417969 180.578125 C 143.300781 181.316406 143.859375 181.996094 144.609375 182.019531 L 152.4375 182.273438 C 152.933594 182.289062 153.390625 182.015625 153.605469 181.566406 C 156.429688 175.6875 175.246094 136.140625 174.539062 127.519531 C 173.78125 118.199219 161.472656 118.675781 157.035156 118.390625 C 152.4375 118.097656 115.808594 118.949219 115.808594 118.949219 L 114.40625 141.972656 " fill-opacity="1" fill-rule="nonzero"/><path fill="#ffffff" d="M 100.605469 47.464844 C 100.605469 47.464844 102.90625 48.753906 105.824219 48.0625 L 100.605469 47.464844 " fill-opacity="1" fill-rule="nonzero"/><path fill="#000000" d="M 104.0625 48.773438 C 101.933594 48.773438 100.433594 47.949219 100.355469 47.90625 C 100.113281 47.769531 100.027344 47.460938 100.164062 47.21875 C 100.300781 46.976562 100.605469 46.890625 100.847656 47.027344 C 100.871094 47.039062 103.027344 48.207031 105.707031 47.574219 C 105.980469 47.507812 106.25 47.675781 106.316406 47.945312 C 106.378906 48.21875 106.210938 48.488281 105.941406 48.554688 C 105.277344 48.710938 104.648438 48.773438 104.0625 48.773438 " fill-opacity="1" fill-rule="nonzero"/><path fill="#ffffff" d="M 161.609375 24.949219 C 159.195312 25.417969 156.78125 25.886719 154.367188 26.351562 C 155.585938 28.910156 161.523438 41.847656 156.027344 48.484375 C 155.789062 48.769531 155.535156 49.039062 155.234375 49.292969 C 150.117188 53.625 143.660156 53.441406 136.378906 53.472656 C 131.957031 53.488281 124.894531 53.519531 117.6875 54.601562 C 116.234375 54.816406 109.121094 55.925781 100.453125 59.207031 C 94.402344 61.492188 85.988281 64.675781 79.527344 70.515625 C 68.128906 80.816406 84.203125 94.316406 89.96875 86.753906 C 91.300781 98.550781 94.515625 107.597656 98.269531 118.863281 C 98.570312 119.777344 98.285156 123.351562 99.054688 123.933594 C 100.089844 124.714844 101.53125 124.554688 102.8125 124.363281 C 115.328125 122.453125 131.261719 128.753906 140.171875 119.839844 C 140.8125 119.199219 138.324219 108.113281 138.121094 106.089844 C 137.585938 100.761719 138.457031 101.386719 137.28125 92.648438 C 136.796875 89.054688 136.773438 83.503906 135.964844 76.984375 C 135.964844 76.878906 135.964844 76.773438 135.964844 76.667969 C 135.964844 76.535156 135.960938 76.382812 135.957031 76.207031 C 142.363281 77.117188 156.042969 77.609375 164.734375 67.445312 C 174.113281 56.472656 173.554688 37.914062 161.609375 24.949219 " fill-opacity="1" fill-rule="nonzero"/><path fill="#000000" d="M 139.746094 119.582031 Z M 108.519531 123.476562 C 111.269531 123.476562 114.082031 123.679688 116.839844 123.871094 C 125.734375 124.503906 134.136719 125.101562 139.757812 119.539062 C 139.945312 118.664062 138.925781 113.320312 138.375 110.425781 C 138.003906 108.496094 137.6875 106.832031 137.617188 106.144531 C 137.398438 103.949219 137.414062 102.765625 137.425781 101.507812 C 137.449219 99.71875 137.472656 97.867188 136.78125 92.714844 C 136.5625 91.097656 136.4375 89.109375 136.292969 86.800781 C 136.113281 83.917969 135.910156 80.648438 135.460938 77.046875 C 135.460938 77.027344 135.460938 77.003906 135.460938 76.984375 C 135.460938 76.878906 135.460938 76.777344 135.460938 76.671875 C 135.457031 76.542969 135.457031 76.390625 135.453125 76.21875 C 135.449219 76.070312 135.511719 75.929688 135.621094 75.832031 C 135.730469 75.734375 135.882812 75.6875 136.027344 75.710938 C 143.011719 76.703125 155.980469 76.910156 164.351562 67.117188 C 173.855469 56 172.558594 37.769531 161.425781 25.5 L 155.097656 26.726562 C 157.410156 31.738281 161.484375 42.6875 156.414062 48.804688 C 156.132812 49.148438 155.859375 49.425781 155.558594 49.679688 C 150.527344 53.9375 144.417969 53.953125 137.34375 53.972656 L 136.378906 53.976562 C 132.089844 53.996094 124.925781 54.023438 117.761719 55.101562 C 115.257812 55.476562 108.578125 56.675781 100.628906 59.679688 C 94.5625 61.972656 86.253906 65.117188 79.867188 70.890625 C 76.632812 73.8125 75.390625 77.355469 76.375 80.859375 C 77.398438 84.515625 80.707031 87.65625 84.234375 88.332031 C 86.425781 88.753906 88.320312 88.082031 89.566406 86.449219 C 89.691406 86.285156 89.902344 86.214844 90.101562 86.265625 C 90.300781 86.324219 90.445312 86.492188 90.46875 86.699219 C 91.707031 97.660156 94.628906 106.386719 98.007812 116.492188 L 98.746094 118.707031 C 98.882812 119.113281 98.910156 119.808594 98.949219 120.6875 C 98.988281 121.527344 99.0625 123.277344 99.359375 123.53125 C 100.21875 124.179688 101.496094 124.050781 102.734375 123.863281 C 104.597656 123.582031 106.542969 123.476562 108.519531 123.476562 Z M 124.898438 125.265625 C 122.226562 125.265625 119.484375 125.070312 116.769531 124.878906 C 112.078125 124.542969 107.226562 124.199219 102.886719 124.863281 C 101.4375 125.082031 99.921875 125.226562 98.75 124.335938 C 98.125 123.863281 98.023438 122.601562 97.941406 120.730469 C 97.910156 120.027344 97.878906 119.296875 97.789062 119.023438 L 97.050781 116.8125 C 93.765625 106.988281 90.914062 98.464844 89.597656 87.910156 C 88.152344 89.238281 86.21875 89.738281 84.046875 89.324219 C 80.160156 88.582031 76.527344 85.136719 75.402344 81.132812 C 74.3125 77.238281 75.65625 73.335938 79.1875 70.140625 C 85.71875 64.242188 94.128906 61.058594 100.273438 58.738281 C 108.308594 55.699219 115.074219 54.484375 117.609375 54.101562 C 124.851562 53.015625 132.0625 52.984375 136.367188 52.96875 L 137.339844 52.964844 C 144.21875 52.945312 150.160156 52.929688 154.90625 48.910156 C 155.160156 48.695312 155.390625 48.457031 155.636719 48.160156 C 160.683594 42.070312 155.589844 30.097656 153.910156 26.570312 C 153.84375 26.429688 153.847656 26.265625 153.914062 26.125 C 153.984375 25.988281 154.117188 25.886719 154.269531 25.859375 L 161.511719 24.457031 C 161.679688 24.425781 161.859375 24.480469 161.976562 24.609375 C 167.738281 30.859375 171.179688 38.78125 171.667969 46.914062 C 172.152344 54.859375 169.824219 62.269531 165.117188 67.773438 C 156.664062 77.664062 143.777344 77.734375 136.46875 76.789062 C 136.46875 76.84375 136.46875 76.898438 136.46875 76.953125 C 136.917969 80.574219 137.121094 83.851562 137.300781 86.738281 C 137.441406 89.027344 137.566406 91 137.78125 92.582031 C 138.484375 97.804688 138.460938 99.695312 138.4375 101.523438 C 138.421875 102.746094 138.40625 103.902344 138.621094 106.042969 C 138.6875 106.683594 139 108.328125 139.363281 110.234375 C 140.8125 117.832031 141.03125 119.691406 140.527344 120.195312 C 136.425781 124.300781 130.839844 125.265625 124.898438 125.265625 " fill-opacity="1" fill-rule="nonzero"/><path fill="#ffffff" d="M 155.140625 26.1875 L 152.832031 21.945312 C 151.460938 19.421875 152.640625 16.191406 155.371094 15.296875 C 155.496094 15.253906 155.578125 15.230469 155.660156 15.210938 C 159.40625 14.28125 163.902344 9.292969 164.996094 9.96875 C 165.714844 10.414062 165.058594 13.394531 163.632812 15.734375 C 161.640625 18.996094 157.9375 21.375 157.9375 21.375 L 160.773438 25.21875 L 155.140625 26.1875 " fill-opacity="1" fill-rule="nonzero"/><path fill="#000000" d="M 164.726562 10.40625 C 164.300781 10.410156 162.917969 11.433594 161.902344 12.1875 C 160.097656 13.523438 157.851562 15.183594 155.78125 15.703125 C 155.710938 15.71875 155.640625 15.738281 155.527344 15.777344 C 154.40625 16.144531 153.507812 17 153.0625 18.117188 C 152.597656 19.289062 152.675781 20.597656 153.277344 21.707031 L 155.410156 25.632812 L 159.882812 24.863281 L 157.53125 21.671875 C 157.449219 21.558594 157.417969 21.417969 157.441406 21.28125 C 157.464844 21.144531 157.546875 21.023438 157.664062 20.949219 C 157.699219 20.925781 161.296875 18.59375 163.203125 15.472656 C 164.609375 13.15625 164.949219 10.832031 164.726562 10.40625 Z M 155.140625 26.691406 C 154.957031 26.691406 154.785156 26.59375 154.695312 26.429688 L 152.390625 22.183594 C 151.644531 20.816406 151.546875 19.195312 152.125 17.742188 C 152.679688 16.347656 153.804688 15.28125 155.210938 14.820312 C 155.355469 14.769531 155.449219 14.746094 155.539062 14.722656 C 157.414062 14.253906 159.570312 12.660156 161.300781 11.375 C 163.265625 9.917969 164.453125 9.039062 165.261719 9.539062 C 166.476562 10.289062 165.363281 13.863281 164.0625 15.996094 C 162.429688 18.679688 159.71875 20.746094 158.65625 21.496094 L 161.179688 24.921875 C 161.28125 25.0625 161.304688 25.246094 161.238281 25.40625 C 161.175781 25.570312 161.03125 25.6875 160.859375 25.714844 L 155.226562 26.683594 C 155.195312 26.691406 155.167969 26.691406 155.140625 26.691406 " fill-opacity="1" fill-rule="nonzero"/><path fill="#ffffff" d="M 109.351562 56.421875 C 105.25 52.335938 106.039062 48.03125 106.039062 48.03125 C 107.347656 47.878906 108.507812 47.550781 109.53125 47.085938 C 110.140625 46.808594 110.4375 46.113281 110.230469 45.476562 C 109.640625 43.667969 109.027344 40.6875 108.703125 40.058594 C 109.070312 39.308594 110.113281 39.113281 109.804688 37.816406 C 107.40625 37.089844 106.011719 33.136719 104.550781 31.84375 C 103.832031 31.203125 103.332031 31.027344 102.453125 30.363281 C 97.867188 30.511719 104.03125 36.621094 97.554688 38.675781 C 97.777344 39.085938 97.667969 39.921875 97.5 40.652344 C 97.375 41.1875 97.253906 41.652344 97.105469 42.015625 C 96.300781 40.546875 95.09375 39.890625 94.402344 40.1875 C 93.699219 40.488281 93.578125 41.761719 93.714844 42.554688 C 94.085938 44.714844 96.753906 45.609375 96.957031 45.675781 C 96.957031 45.675781 97.617188 55.980469 96.410156 60.140625 C 91.332031 62.289062 88.53125 64.277344 88.53125 64.277344 C 114.980469 67.660156 119.960938 54.953125 119.960938 54.953125 C 116.757812 55.082031 112.128906 55.945312 109.351562 56.421875 " fill-opacity="1" fill-rule="nonzero"/><path fill="#000000" d="M 89.988281 63.941406 C 110.890625 66.230469 117.550781 58.0625 119.097656 55.503906 C 116.390625 55.703125 112.980469 56.300781 110.421875 56.75 L 109.433594 56.917969 C 109.273438 56.945312 109.109375 56.894531 108.992188 56.78125 C 104.753906 52.554688 105.507812 48.125 105.539062 47.941406 C 105.582031 47.722656 105.757812 47.554688 105.980469 47.527344 C 107.195312 47.386719 108.320312 47.082031 109.324219 46.628906 C 109.695312 46.457031 109.878906 46.03125 109.75 45.632812 C 109.464844 44.757812 109.175781 43.621094 108.917969 42.613281 C 108.664062 41.609375 108.398438 40.570312 108.253906 40.289062 C 108.183594 40.144531 108.183594 39.976562 108.253906 39.835938 C 108.414062 39.507812 108.65625 39.273438 108.871094 39.070312 C 109.183594 38.773438 109.378906 38.585938 109.351562 38.191406 C 107.8125 37.558594 106.722656 35.835938 105.75 34.304688 C 105.207031 33.453125 104.695312 32.644531 104.21875 32.21875 C 103.839844 31.886719 103.527344 31.6875 103.164062 31.457031 C 102.914062 31.296875 102.632812 31.117188 102.300781 30.875 C 101.824219 30.910156 101.496094 31.027344 101.320312 31.226562 C 101 31.59375 101.078125 32.402344 101.167969 33.257812 C 101.355469 35.140625 101.613281 37.691406 98.164062 38.996094 C 98.21875 39.441406 98.160156 40.027344 97.988281 40.765625 C 97.882812 41.234375 97.75 41.773438 97.574219 42.207031 C 97.5 42.386719 97.328125 42.507812 97.136719 42.519531 C 96.941406 42.53125 96.757812 42.429688 96.664062 42.257812 C 95.929688 40.914062 94.945312 40.503906 94.601562 40.648438 C 94.265625 40.792969 94.074219 41.675781 94.210938 42.472656 C 94.535156 44.351562 97.007812 45.160156 97.113281 45.195312 C 97.308594 45.257812 97.449219 45.4375 97.460938 45.640625 C 97.488281 46.066406 98.109375 56.082031 96.894531 60.28125 C 96.851562 60.429688 96.746094 60.546875 96.605469 60.605469 C 93.503906 61.917969 91.25 63.179688 89.988281 63.941406 Z M 96.90625 65.347656 C 94.375 65.347656 91.570312 65.171875 88.464844 64.777344 C 88.261719 64.75 88.089844 64.601562 88.039062 64.402344 C 87.988281 64.199219 88.066406 63.988281 88.238281 63.867188 C 88.351562 63.785156 91.058594 61.878906 95.988281 59.773438 C 96.957031 56.035156 96.570312 47.78125 96.472656 46.035156 C 95.628906 45.699219 93.566406 44.683594 93.214844 42.640625 C 93.054688 41.707031 93.1875 40.15625 94.207031 39.722656 C 95.015625 39.375 96.082031 39.855469 96.929688 40.863281 C 96.957031 40.753906 96.984375 40.644531 97.007812 40.539062 C 97.292969 39.296875 97.132812 38.953125 97.113281 38.917969 C 97.039062 38.785156 97.027344 38.628906 97.085938 38.488281 C 97.140625 38.347656 97.257812 38.242188 97.402344 38.195312 C 100.550781 37.195312 100.351562 35.246094 100.160156 33.359375 C 100.054688 32.277344 99.949219 31.261719 100.5625 30.5625 C 100.953125 30.117188 101.566406 29.886719 102.4375 29.859375 C 102.554688 29.855469 102.667969 29.890625 102.757812 29.960938 C 103.125 30.238281 103.417969 30.421875 103.703125 30.605469 C 104.089844 30.847656 104.449219 31.078125 104.886719 31.464844 C 105.472656 31.984375 106.023438 32.851562 106.601562 33.765625 C 107.542969 35.25 108.609375 36.925781 109.949219 37.335938 C 110.121094 37.386719 110.25 37.527344 110.292969 37.699219 C 110.566406 38.847656 109.988281 39.398438 109.570312 39.796875 C 109.457031 39.90625 109.351562 40.003906 109.269531 40.105469 C 109.433594 40.550781 109.625 41.296875 109.894531 42.363281 C 110.148438 43.355469 110.433594 44.480469 110.710938 45.320312 C 111 46.207031 110.582031 47.160156 109.742188 47.542969 C 108.753906 47.996094 107.660156 48.308594 106.492188 48.480469 C 106.414062 49.535156 106.476562 52.722656 109.523438 55.878906 L 110.246094 55.753906 C 113.121094 55.253906 117.058594 54.566406 119.941406 54.449219 C 120.113281 54.4375 120.273438 54.519531 120.371094 54.660156 C 120.472656 54.796875 120.492188 54.976562 120.433594 55.132812 C 120.378906 55.273438 119.070312 58.5 114.425781 61.3125 C 111.152344 63.292969 105.648438 65.347656 96.90625 65.347656 " fill-opacity="1" fill-rule="nonzero"/><path fill="#ffffff" d="M 98.765625 45.945312 C 98.765625 45.945312 101.574219 48.902344 106.039062 48.03125 L 98.765625 45.945312 " fill-opacity="1" fill-rule="nonzero"/><path fill="#000000" d="M 104.378906 48.699219 C 100.726562 48.699219 98.503906 46.40625 98.398438 46.292969 C 98.207031 46.09375 98.214844 45.773438 98.417969 45.582031 C 98.617188 45.390625 98.9375 45.398438 99.128906 45.597656 C 99.246094 45.722656 101.824219 48.34375 105.941406 47.535156 C 106.214844 47.480469 106.480469 47.660156 106.53125 47.933594 C 106.585938 48.207031 106.40625 48.472656 106.132812 48.527344 C 105.519531 48.644531 104.933594 48.699219 104.378906 48.699219 " fill-opacity="1" fill-rule="nonzero"/><path fill="#ffffff" d="M 37 159.859375 L 47.953125 175.386719 L 135.199219 113.910156 L 124.246094 98.382812 L 37 159.859375 " fill-opacity="1" fill-rule="nonzero"/><path fill="#ffffff" d="M 141.597656 87.050781 C 145.339844 84.414062 150.507812 85.308594 153.144531 89.046875 C 155.78125 92.785156 154.886719 97.953125 151.148438 100.589844 C 147.40625 103.222656 142.238281 102.332031 139.601562 98.59375 C 136.964844 94.855469 137.859375 89.6875 141.597656 87.050781 Z M 113.25 76.035156 C 97.847656 86.886719 94.164062 108.164062 105.023438 123.550781 C 115.882812 138.945312 137.171875 142.625 152.570312 131.773438 C 167.976562 120.917969 171.65625 99.644531 160.796875 84.253906 C 149.9375 68.863281 128.648438 65.179688 113.25 76.035156 " fill-opacity="1" fill-rule="nonzero"/><path fill="#ffffff" d="M 37.984375 161.253906 L 53.925781 183.847656 L 58.703125 180.480469 L 42.765625 157.886719 L 37.984375 161.253906 " fill-opacity="1" fill-rule="nonzero"/><path fill="#ffffff" d="M 45.214844 155.867188 L 60.402344 177.394531 L 65.183594 174.027344 L 49.996094 152.496094 L 45.214844 155.867188 " fill-opacity="1" fill-rule="nonzero"/><path fill="#ffffff" d="M 54.5625 154.320312 L 67.847656 173.148438 L 72.625 169.78125 L 59.339844 150.953125 L 54.5625 154.320312 " fill-opacity="1" fill-rule="nonzero"/><path fill="#142d49" d="M 38.230469 161.53125 L 49.183594 177.058594 L 136.425781 115.582031 L 125.472656 100.054688 L 38.230469 161.53125 " fill-opacity="1" fill-rule="nonzero"/><path fill="#142d49" d="M 142.828125 88.722656 C 146.566406 86.089844 151.738281 86.980469 154.375 90.71875 C 157.011719 94.457031 156.117188 99.625 152.378906 102.257812 C 148.636719 104.894531 143.46875 104 140.832031 100.265625 C 138.191406 96.527344 139.085938 91.359375 142.828125 88.722656 Z M 114.476562 77.703125 C 99.074219 88.558594 95.394531 109.832031 106.253906 125.226562 C 117.113281 140.617188 138.398438 144.296875 153.800781 133.441406 C 169.203125 122.589844 172.882812 101.316406 162.023438 85.925781 C 151.167969 70.53125 129.878906 66.851562 114.476562 77.703125 " fill-opacity="1" fill-rule="nonzero"/><path fill="#000000" d="M 135.117188 76.183594 C 129.222656 76.183594 123.277344 77.933594 118.105469 81.578125 C 111.640625 86.128906 107.34375 92.925781 105.996094 100.710938 C 104.648438 108.496094 106.414062 116.335938 110.972656 122.792969 C 116.726562 130.953125 125.894531 135.316406 135.199219 135.316406 C 141.09375 135.316406 147.039062 133.570312 152.210938 129.925781 C 158.671875 125.371094 162.972656 118.578125 164.320312 110.789062 C 165.667969 103.007812 163.902344 95.164062 159.347656 88.707031 C 153.589844 80.546875 144.421875 76.183594 135.117188 76.183594 Z M 135.199219 136.324219 C 125.578125 136.324219 116.101562 131.816406 110.148438 123.375 C 105.4375 116.699219 103.609375 108.589844 105 100.539062 C 106.394531 92.488281 110.84375 85.460938 117.523438 80.753906 C 131.316406 71.035156 150.445312 74.34375 160.171875 88.125 C 164.882812 94.800781 166.707031 102.914062 165.3125 110.964844 C 163.921875 119.011719 159.472656 126.039062 152.792969 130.75 C 147.445312 134.515625 141.292969 136.324219 135.199219 136.324219 " fill-opacity="1" fill-rule="nonzero"/><path fill="#142d49" d="M 39.214844 162.929688 L 55.152344 185.519531 L 59.933594 182.152344 L 43.996094 159.558594 L 39.214844 162.929688 " fill-opacity="1" fill-rule="nonzero"/><path fill="#142d49" d="M 46.441406 157.539062 L 61.632812 179.066406 L 66.414062 175.699219 L 51.222656 154.167969 L 46.441406 157.539062 " fill-opacity="1" fill-rule="nonzero"/><path fill="#142d49" d="M 55.789062 155.992188 L 69.074219 174.820312 L 73.855469 171.453125 L 60.570312 152.625 L 55.789062 155.992188 " fill-opacity="1" fill-rule="nonzero"/><path fill="#000000" d="M 50.015625 174.273438 C 49.859375 174.273438 49.710938 174.203125 49.609375 174.070312 L 43.410156 165.753906 C 42.769531 164.898438 42.511719 163.84375 42.683594 162.789062 C 42.851562 161.734375 43.429688 160.816406 44.304688 160.203125 L 101.914062 119.917969 C 102.140625 119.757812 102.457031 119.8125 102.617188 120.039062 C 102.777344 120.269531 102.71875 120.582031 102.492188 120.742188 L 44.882812 161.03125 C 44.230469 161.484375 43.804688 162.167969 43.679688 162.949219 C 43.550781 163.734375 43.742188 164.515625 44.21875 165.152344 L 50.417969 173.46875 C 50.585938 173.691406 50.539062 174.007812 50.316406 174.171875 C 50.226562 174.238281 50.121094 174.273438 50.015625 174.273438 " fill-opacity="1" fill-rule="nonzero"/><path fill="#ffffff" d="M 83.40625 113.664062 C 81.230469 104.585938 84.542969 92.835938 90.140625 85.308594 C 86.839844 80.890625 86.894531 75.785156 85.824219 68.449219 C 82.546875 70.152344 82.484375 68.699219 79.601562 71.304688 C 68.203125 81.605469 61.003906 101.058594 68.222656 119.160156 C 73.558594 132.546875 84.777344 139.230469 89.289062 141.582031 C 91.367188 139.269531 95.515625 134.652344 95.515625 134.652344 C 95.515625 134.652344 86.402344 126.160156 83.40625 113.664062 " fill-opacity="1" fill-rule="nonzero"/><path fill="#ffffff" d="M 90.164062 140.613281 C 91.445312 141.421875 93.59375 142.710938 96.445312 143.21875 C 101.160156 144.058594 104.695312 142.644531 105.402344 142.347656 C 107.488281 141.476562 110.789062 139.515625 110.496094 137.945312 C 110.417969 137.527344 110.109375 137.253906 109.980469 137.144531 C 108.9375 136.226562 107.363281 137.019531 105.171875 137.316406 C 105.171875 137.316406 104.488281 137.410156 97.53125 136.546875 L 94.894531 135.34375 L 90.164062 140.613281 " fill-opacity="1" fill-rule="nonzero"/><path fill="#000000" d="M 90.941406 140.5 C 92.429688 141.402344 94.242188 142.3125 96.535156 142.722656 C 100.761719 143.472656 104.007812 142.386719 105.207031 141.882812 C 107.675781 140.851562 110.191406 139.058594 110 138.039062 C 109.957031 137.789062 109.75 137.609375 109.652344 137.523438 C 109.117188 137.054688 108.332031 137.199219 106.996094 137.488281 C 106.472656 137.601562 105.878906 137.730469 105.242188 137.816406 C 105.117188 137.832031 104.152344 137.875 97.46875 137.046875 C 97.417969 137.042969 97.367188 137.027344 97.320312 137.007812 L 95.019531 135.957031 Z M 99.425781 143.988281 C 98.472656 143.988281 97.445312 143.910156 96.359375 143.714844 C 93.625 143.230469 91.554688 142.089844 89.890625 141.039062 C 89.765625 140.957031 89.683594 140.828125 89.664062 140.679688 C 89.640625 140.53125 89.6875 140.386719 89.785156 140.277344 L 94.515625 135.007812 C 94.664062 134.84375 94.902344 134.792969 95.101562 134.886719 L 97.667969 136.054688 C 104.164062 136.859375 105.09375 136.816406 105.128906 136.8125 C 105.707031 136.734375 106.253906 136.617188 106.78125 136.5 C 108.171875 136.199219 109.375 135.941406 110.316406 136.765625 C 110.472656 136.902344 110.882812 137.261719 110.992188 137.851562 C 111.457031 140.332031 105.835938 142.714844 105.597656 142.816406 C 104.625 143.222656 102.398438 143.988281 99.425781 143.988281 " fill-opacity="1" fill-rule="nonzero"/><path fill="#000000" d="M 89.289062 142.085938 C 89.210938 142.085938 89.128906 142.066406 89.058594 142.03125 C 83.277344 139.019531 72.824219 132.066406 67.75 119.347656 C 60.511719 101.191406 68.265625 81.5625 79.164062 70.167969 C 82.265625 66.921875 83.171875 66.183594 87.628906 64.125 C 87.882812 64.007812 88.183594 64.121094 88.300781 64.371094 C 88.414062 64.625 88.304688 64.925781 88.050781 65.042969 C 83.726562 67.035156 82.925781 67.691406 79.890625 70.867188 C 69.21875 82.027344 61.617188 101.234375 68.691406 118.976562 C 73.539062 131.144531 83.460938 137.914062 89.175781 140.953125 L 94.789062 134.703125 C 93.070312 133.21875 86.621094 126.941406 82.917969 113.800781 C 80.265625 104.382812 84.386719 92.558594 89.335938 85.558594 C 89.496094 85.328125 89.8125 85.273438 90.039062 85.4375 C 90.265625 85.597656 90.320312 85.914062 90.160156 86.140625 C 85.34375 92.949219 81.328125 104.429688 83.890625 113.527344 C 87.996094 128.109375 95.746094 134.191406 95.824219 134.25 C 95.933594 134.335938 96.003906 134.464844 96.019531 134.605469 C 96.03125 134.746094 95.984375 134.882812 95.890625 134.988281 L 89.664062 141.917969 C 89.566406 142.027344 89.429688 142.085938 89.289062 142.085938 " fill-opacity="1" fill-rule="nonzero"/><path fill="#000000" d="M 89.75 86.351562 C 89.648438 86.351562 89.546875 86.324219 89.457031 86.257812 C 89.230469 86.097656 89.175781 85.78125 89.339844 85.554688 C 89.46875 85.371094 89.601562 85.1875 89.734375 85.007812 C 89.902344 84.785156 90.21875 84.738281 90.441406 84.90625 C 90.664062 85.070312 90.710938 85.386719 90.546875 85.609375 C 90.414062 85.78125 90.289062 85.960938 90.160156 86.136719 C 90.0625 86.277344 89.90625 86.351562 89.75 86.351562 " fill-opacity="1" fill-rule="nonzero"/><path fill="#000000" d="M 267.671875 31.476562 C 268.117188 45.238281 257.316406 56.757812 243.542969 57.207031 C 229.773438 57.652344 218.246094 46.859375 217.796875 33.09375 C 217.351562 19.332031 228.152344 7.8125 241.925781 7.367188 C 255.695312 6.921875 267.222656 17.714844 267.671875 31.476562 " fill-opacity="1" fill-rule="nonzero"/><path fill="#000000" d="M 267.972656 30.726562 C 268.402344 44.082031 257.921875 55.261719 244.5625 55.695312 C 231.199219 56.128906 220.015625 45.652344 219.582031 32.300781 C 219.144531 18.945312 229.625 7.765625 242.988281 7.332031 C 256.351562 6.898438 267.535156 17.375 267.972656 30.726562 " fill-opacity="1" fill-rule="nonzero"/><path fill="#000000" d="M 243.796875 7.824219 C 243.53125 7.824219 243.269531 7.828125 243.007812 7.835938 C 229.941406 8.261719 219.660156 19.226562 220.085938 32.28125 C 220.289062 38.605469 222.949219 44.46875 227.570312 48.796875 C 232.191406 53.125 238.21875 55.394531 244.546875 55.1875 C 250.875 54.984375 256.742188 52.328125 261.074219 47.710938 C 265.402344 43.09375 267.675781 37.066406 267.46875 30.742188 C 267.261719 24.417969 264.601562 18.550781 259.984375 14.226562 C 255.558594 10.078125 249.835938 7.824219 243.796875 7.824219 Z M 243.757812 56.207031 C 237.460938 56.207031 231.496094 53.855469 226.878906 49.535156 C 222.0625 45.023438 219.292969 38.90625 219.078125 32.316406 C 218.636719 18.703125 229.355469 7.269531 242.972656 6.828125 C 249.570312 6.609375 255.859375 8.980469 260.675781 13.492188 C 265.492188 18.003906 268.261719 24.117188 268.476562 30.710938 C 268.691406 37.300781 266.324219 43.585938 261.8125 48.398438 C 257.292969 53.214844 251.175781 55.980469 244.578125 56.195312 C 244.304688 56.203125 244.027344 56.207031 243.757812 56.207031 " fill-opacity="1" fill-rule="nonzero"/><path fill="#ffffff" d="M 264.082031 30.851562 C 264.445312 42.058594 255.648438 51.4375 244.4375 51.804688 C 233.222656 52.167969 223.835938 43.378906 223.472656 32.171875 C 223.109375 20.964844 231.902344 11.585938 243.117188 11.222656 C 254.328125 10.855469 263.71875 19.644531 264.082031 30.851562 " fill-opacity="1" fill-rule="nonzero"/><path fill="#000000" d="M 261.203125 42.453125 C 261.117188 42.453125 261.027344 42.429688 260.945312 42.382812 C 260.707031 42.238281 260.628906 41.929688 260.769531 41.691406 C 261.746094 40.066406 262.480469 38.316406 262.957031 36.492188 C 263.027344 36.21875 263.304688 36.058594 263.570312 36.128906 C 263.839844 36.199219 264.003906 36.476562 263.933594 36.742188 C 263.433594 38.664062 262.664062 40.503906 261.636719 42.210938 C 261.542969 42.367188 261.375 42.453125 261.203125 42.453125 " fill-opacity="1" fill-rule="nonzero"/><path fill="#000000" d="M 261.765625 22.570312 C 261.582031 22.570312 261.410156 22.472656 261.320312 22.304688 C 257.753906 15.527344 250.777344 11.472656 243.132812 11.722656 C 236.851562 11.929688 230.972656 15.148438 227.417969 20.34375 C 227.261719 20.574219 226.945312 20.632812 226.714844 20.476562 C 226.488281 20.316406 226.429688 20.003906 226.585938 19.773438 C 230.320312 14.316406 236.496094 10.933594 243.101562 10.71875 C 251.023438 10.457031 258.519531 14.824219 262.210938 21.835938 C 262.34375 22.078125 262.246094 22.382812 262 22.515625 C 261.925781 22.554688 261.84375 22.570312 261.765625 22.570312 " fill-opacity="1" fill-rule="nonzero"/><path fill="#000000" d="M 243.757812 52.320312 C 238.453125 52.320312 233.429688 50.335938 229.539062 46.695312 C 225.480469 42.894531 223.148438 37.742188 222.96875 32.191406 C 222.851562 28.628906 223.652344 25.082031 225.285156 21.941406 C 225.414062 21.691406 225.722656 21.59375 225.96875 21.722656 C 226.214844 21.851562 226.3125 22.15625 226.183594 22.402344 C 224.625 25.394531 223.867188 28.769531 223.976562 32.15625 C 224.148438 37.441406 226.367188 42.34375 230.226562 45.960938 C 234.089844 49.578125 239.128906 51.472656 244.417969 51.300781 C 244.695312 51.28125 244.929688 51.511719 244.941406 51.789062 C 244.949219 52.066406 244.730469 52.300781 244.453125 52.308594 C 244.21875 52.316406 243.988281 52.320312 243.757812 52.320312 " fill-opacity="1" fill-rule="nonzero"/><path fill="#142d49" d="M 242.378906 45.902344 L 242.269531 42.566406 C 239.914062 42.535156 237.605469 41.976562 236.246094 41.25 L 237.167969 37.105469 C 238.671875 37.867188 240.765625 38.535156 243.050781 38.460938 C 245.054688 38.398438 246.398438 37.578125 246.355469 36.175781 C 246.3125 34.839844 245.15625 34.035156 242.53125 33.242188 C 238.730469 32.101562 236.109375 30.425781 235.996094 27.023438 C 235.894531 23.929688 237.996094 21.4375 241.730469 20.578125 L 241.621094 17.242188 L 245.066406 17.128906 L 245.167969 20.222656 C 247.523438 20.25 249.121094 20.6875 250.300781 21.210938 L 249.410156 25.214844 C 248.484375 24.859375 246.839844 24.101562 244.308594 24.183594 C 242.027344 24.257812 241.320312 25.265625 241.351562 26.25 C 241.390625 27.410156 242.644531 28.105469 245.667969 29.132812 C 249.898438 30.472656 251.648438 32.347656 251.75 35.507812 C 251.851562 38.632812 249.722656 41.375 245.707031 42.207031 L 245.824219 45.789062 L 242.378906 45.902344 " fill-opacity="1" fill-rule="nonzero"/><path fill="#000000" d="M 286.710938 80.855469 C 287.171875 92.382812 278.195312 102.09375 266.664062 102.550781 C 255.132812 103.011719 245.414062 94.039062 244.953125 82.515625 C 244.496094 70.992188 253.472656 61.28125 265.003906 60.824219 C 276.535156 60.363281 286.253906 69.332031 286.710938 80.855469 " fill-opacity="1" fill-rule="nonzero"/><path fill="#000000" d="M 286.957031 80.226562 C 287.402344 91.410156 278.695312 100.835938 267.507812 101.28125 C 256.320312 101.722656 246.886719 93.019531 246.441406 81.839844 C 245.996094 70.65625 254.707031 61.234375 265.894531 60.789062 C 277.085938 60.34375 286.511719 69.046875 286.957031 80.226562 " fill-opacity="1" fill-rule="nonzero"/><path fill="#000000" d="M 266.722656 61.273438 C 266.453125 61.273438 266.1875 61.28125 265.914062 61.289062 C 255.023438 61.722656 246.511719 70.929688 246.945312 81.816406 C 247.15625 87.089844 249.410156 91.964844 253.289062 95.546875 C 257.171875 99.128906 262.214844 100.984375 267.488281 100.773438 C 272.765625 100.5625 277.644531 98.3125 281.226562 94.4375 C 284.808594 90.558594 286.667969 85.519531 286.453125 80.246094 C 286.246094 74.972656 283.992188 70.097656 280.113281 66.515625 C 276.433594 63.121094 271.703125 61.273438 266.722656 61.273438 Z M 266.679688 101.800781 C 261.445312 101.800781 256.472656 99.859375 252.605469 96.289062 C 248.527344 92.523438 246.160156 87.398438 245.9375 81.855469 C 245.71875 76.3125 247.671875 71.019531 251.4375 66.941406 C 255.203125 62.867188 260.328125 60.503906 265.875 60.28125 C 271.425781 60.0625 276.722656 62.015625 280.796875 65.777344 C 284.875 69.539062 287.246094 74.664062 287.464844 80.207031 C 287.683594 85.75 285.734375 91.046875 281.96875 95.121094 C 278.203125 99.195312 273.074219 101.5625 267.527344 101.78125 C 267.246094 101.792969 266.960938 101.800781 266.679688 101.800781 " fill-opacity="1" fill-rule="nonzero"/><path fill="#ffffff" d="M 283.703125 80.359375 C 284.074219 89.742188 276.765625 97.648438 267.375 98.023438 C 257.988281 98.394531 250.074219 91.09375 249.699219 81.710938 C 249.324219 72.328125 256.636719 64.417969 266.023438 64.042969 C 275.414062 63.667969 283.328125 70.976562 283.703125 80.359375 " fill-opacity="1" fill-rule="nonzero"/><path fill="#000000" d="M 281.359375 90.171875 C 281.273438 90.171875 281.183594 90.148438 281.105469 90.101562 C 280.863281 89.960938 280.785156 89.652344 280.925781 89.410156 C 281.730469 88.054688 282.332031 86.589844 282.714844 85.066406 C 282.785156 84.796875 283.058594 84.632812 283.328125 84.699219 C 283.597656 84.765625 283.761719 85.042969 283.695312 85.308594 C 283.289062 86.929688 282.644531 88.480469 281.792969 89.925781 C 281.703125 90.082031 281.53125 90.171875 281.359375 90.171875 " fill-opacity="1" fill-rule="nonzero"/><path fill="#000000" d="M 281.707031 73.519531 C 281.527344 73.519531 281.355469 73.421875 281.261719 73.25 C 278.25 67.628906 272.414062 64.289062 266.042969 64.546875 C 260.808594 64.753906 255.933594 67.476562 253 71.824219 C 252.84375 72.054688 252.53125 72.117188 252.300781 71.960938 C 252.070312 71.804688 252.007812 71.492188 252.164062 71.261719 C 255.273438 66.644531 260.449219 63.761719 266.003906 63.539062 C 272.660156 63.28125 279.003906 66.898438 282.152344 72.777344 C 282.285156 73.023438 282.191406 73.328125 281.945312 73.460938 C 281.871094 73.5 281.789062 73.519531 281.707031 73.519531 " fill-opacity="1" fill-rule="nonzero"/><path fill="#000000" d="M 266.683594 98.539062 C 262.269531 98.539062 258.078125 96.90625 254.816406 93.894531 C 251.378906 90.722656 249.382812 86.398438 249.199219 81.726562 C 249.078125 78.730469 249.730469 75.746094 251.085938 73.089844 C 251.210938 72.839844 251.515625 72.742188 251.765625 72.867188 C 252.011719 72.996094 252.113281 73.300781 251.984375 73.546875 C 250.707031 76.046875 250.09375 78.863281 250.203125 81.6875 C 250.566406 90.777344 258.261719 97.886719 267.355469 97.519531 C 267.363281 97.519531 267.371094 97.519531 267.378906 97.519531 C 267.648438 97.519531 267.871094 97.734375 267.882812 98.003906 C 267.894531 98.28125 267.675781 98.515625 267.398438 98.527344 C 267.160156 98.535156 266.921875 98.539062 266.683594 98.539062 " fill-opacity="1" fill-rule="nonzero"/><path fill="#142d49" d="M 265.621094 93.089844 L 265.507812 90.296875 C 263.53125 90.289062 261.601562 89.835938 260.457031 89.234375 L 261.203125 85.757812 C 262.464844 86.386719 264.226562 86.933594 266.136719 86.859375 C 267.8125 86.789062 268.933594 86.097656 268.890625 84.921875 C 268.84375 83.804688 267.875 83.136719 265.667969 82.488281 C 262.476562 81.554688 260.273438 80.171875 260.160156 77.320312 C 260.054688 74.730469 261.796875 72.628906 264.921875 71.886719 L 264.808594 69.09375 L 267.691406 68.980469 L 267.796875 71.566406 C 269.769531 71.574219 271.109375 71.9375 272.101562 72.367188 L 271.378906 75.722656 C 270.601562 75.429688 269.222656 74.808594 267.101562 74.890625 C 265.191406 74.96875 264.605469 75.816406 264.640625 76.640625 C 264.675781 77.609375 265.730469 78.1875 268.273438 79.027344 C 271.820312 80.121094 273.296875 81.683594 273.402344 84.328125 C 273.507812 86.945312 271.742188 89.253906 268.382812 89.976562 L 268.5 92.976562 L 265.621094 93.089844 " fill-opacity="1" fill-rule="nonzero"/></svg>